<svg width="31" height="31" viewBox="0 0 31 31" fill="none" xmlns="http://www.w3.org/2000/svg">
<path d="M20.7825 0H10.2478C4.58808 0 0 4.58808 0 10.2478V20.7825C0 26.4422 4.58808 31.0303 10.2478 31.0303H20.7825C26.4422 31.0303 31.0303 26.4422 31.0303 20.7825V10.2478C31.0303 4.58808 26.4422 0 20.7825 0Z" fill="url(#paint0_linear_7527_14665)"/>
<path d="M14.3895 7.00676C15.5638 6.94637 16.7231 7.29187 17.6727 7.98528C18.6224 8.67887 19.3054 9.6782 19.6053 10.8154C19.6194 10.9007 19.6603 10.9799 19.7225 11.04C19.7846 11.0999 19.8644 11.1382 19.95 11.1493C21.2974 11.4687 22.2342 12.2648 22.7733 13.498C22.8418 13.6548 22.8696 13.8438 23.0038 13.9501C23.0716 14.0039 23.1564 14.0325 23.243 14.0312C25.573 14.2361 27.4105 16.3053 27.3319 18.621C27.3036 19.774 26.8307 20.8716 26.0125 21.6845C25.1943 22.4974 24.0935 22.9636 22.9403 22.9843C20.7734 23.0144 18.6136 22.9911 16.454 22.9911C14.3171 22.9911 12.1802 23.0112 10.0448 22.9911C8.78621 22.9789 7.56761 22.5472 6.58188 21.7646C5.59619 20.982 4.89962 19.8929 4.60239 18.6698C3.79044 15.4546 5.97157 12.1647 9.24985 11.6806C9.4876 11.6448 9.55396 11.5573 9.59263 11.331C9.77415 10.1691 10.35 9.10475 11.2235 8.31731C12.097 7.52997 13.2151 7.06724 14.3895 7.00676ZM14.4618 14.9501C13.9512 14.9502 13.4616 15.1527 13.1004 15.5136L11.6551 16.9589C11.4713 17.1365 11.3244 17.349 11.2235 17.5839C11.1226 17.8188 11.0695 18.0715 11.0672 18.3271C11.065 18.5828 11.114 18.8365 11.2108 19.0732C11.3076 19.3099 11.4508 19.5251 11.6317 19.706C11.8126 19.8868 12.0278 20.03 12.2645 20.1269C12.5012 20.2237 12.7549 20.2727 13.0106 20.2704C13.2662 20.2682 13.5189 20.2151 13.7538 20.1142C13.9886 20.0133 14.2011 19.8664 14.3788 19.6825L15.1014 18.9599C15.1474 18.9155 15.1846 18.8624 15.2098 18.8036C15.235 18.745 15.2483 18.6819 15.2489 18.6181C15.2494 18.5543 15.2369 18.4907 15.2127 18.4316C15.1885 18.3724 15.1525 18.3186 15.1073 18.2734C15.0621 18.2281 15.0083 18.1921 14.9491 18.1679C14.89 18.1437 14.8264 18.1312 14.7625 18.1318C14.6987 18.1324 14.6356 18.1457 14.577 18.1708C14.5182 18.1961 14.4652 18.2332 14.4208 18.2792L13.6981 19.0009C13.6093 19.0929 13.503 19.1662 13.3856 19.2167C13.2681 19.2672 13.1414 19.2937 13.0135 19.2948C12.8857 19.2959 12.7588 19.272 12.6405 19.2236C12.5222 19.1751 12.4144 19.104 12.3241 19.0136C12.2337 18.9232 12.1625 18.8155 12.1141 18.6972C12.0657 18.5789 12.0408 18.4519 12.0418 18.3241C12.043 18.1963 12.0705 18.0696 12.1209 17.9521C12.1714 17.8346 12.2448 17.7284 12.3368 17.6396L13.7811 16.1943C13.9616 16.0139 14.2066 15.9131 14.4618 15.913C14.7172 15.913 14.9628 16.0137 15.1434 16.1943C15.1878 16.2403 15.2409 16.2774 15.2997 16.3027C15.3583 16.3278 15.4214 16.3412 15.4852 16.3417C15.5491 16.3423 15.6125 16.3298 15.6717 16.3056C15.7309 16.2814 15.7847 16.2453 15.8299 16.2001C15.875 16.155 15.9112 16.1019 15.9354 16.0429C15.9596 15.9839 15.971 15.9202 15.9706 15.8564C15.97 15.7924 15.9567 15.7286 15.9315 15.6698C15.9063 15.6112 15.87 15.558 15.8241 15.5136C15.4628 15.1525 14.9726 14.9501 14.4618 14.9501ZM16.8631 12.5654C16.3581 12.561 15.871 12.7545 15.5077 13.1054L14.786 13.8281C14.74 13.8725 14.7028 13.9256 14.6776 13.9843C14.6524 14.0429 14.6391 14.1061 14.6385 14.1698C14.638 14.2338 14.6504 14.2982 14.6747 14.3573C14.6989 14.4163 14.735 14.4695 14.7801 14.5146C14.8253 14.5598 14.8791 14.5958 14.9383 14.62C14.9974 14.6442 15.061 14.6567 15.1249 14.6562C15.1887 14.6556 15.2518 14.6423 15.3104 14.6171C15.3691 14.5919 15.4222 14.5547 15.4666 14.5087L16.1893 13.787C16.2782 13.695 16.3843 13.6217 16.5018 13.5712C16.6193 13.5207 16.746 13.4942 16.8739 13.4931C17.0016 13.492 17.1287 13.516 17.2469 13.5644C17.3652 13.6128 17.473 13.684 17.5633 13.7743C17.6537 13.8647 17.7249 13.9725 17.7733 14.0907C17.8217 14.209 17.8456 14.336 17.8446 14.4638C17.8435 14.5917 17.8169 14.7184 17.7665 14.8359C17.716 14.9534 17.6426 15.0595 17.5506 15.1484L16.1063 16.5937C15.9258 16.7741 15.6808 16.8748 15.4256 16.8749C15.1702 16.8749 14.9246 16.7742 14.744 16.5937C14.6532 16.506 14.5314 16.4568 14.4051 16.4579C14.279 16.4591 14.1584 16.5103 14.0692 16.5995C13.98 16.6888 13.9297 16.8093 13.9286 16.9355C13.9275 17.0617 13.9756 17.1835 14.0633 17.2743C14.4246 17.6355 14.9148 17.8388 15.4256 17.8388C15.9362 17.8387 16.4258 17.6353 16.787 17.2743L18.2323 15.83C18.5832 15.4667 18.7767 14.9796 18.7723 14.4745C18.7679 13.9695 18.566 13.486 18.2088 13.1288C17.8517 12.7717 17.3682 12.5698 16.8631 12.5654Z" fill="white"/>
<defs>
<linearGradient id="paint0_linear_7527_14665" x1="15.5152" y1="0" x2="15.5152" y2="31.0303" gradientUnits="userSpaceOnUse">
<stop stop-color="#00C6FB"/>
<stop offset="1" stop-color="#007AFF"/>
</linearGradient>
</defs>
</svg>
