<svg xmlns="http://www.w3.org/2000/svg" width="179" height="38" viewBox="0 0 179 38" fill="none">
  <g clip-path="url(#clip0_2348_5477)">
    <path d="M27.5836 37.3122C22.6807 37.3122 17.7777 37.3582 12.8781 37.3122C9.99035 37.2844 7.19442 36.2953 4.93272 34.5018C2.67102 32.7084 1.07272 30.2128 0.390736 27.41C-1.4725 20.0415 3.53229 12.5023 11.0543 11.393C11.5998 11.311 11.7509 11.1107 11.8397 10.5922C12.256 7.92917 13.5773 5.49045 15.5816 3.6857C17.5858 1.88095 20.1509 0.820162 22.8459 0.681554C25.5408 0.542946 28.2014 1.33496 30.3807 2.92454C32.56 4.51412 34.1251 6.80439 34.8131 9.41058C34.8453 9.60612 34.9398 9.78608 35.0823 9.92382C35.225 10.0616 35.4083 10.1497 35.605 10.1753C38.6964 10.9071 40.8456 12.731 42.0826 15.5569C42.24 15.9165 42.3041 16.3496 42.6119 16.5932C42.7677 16.7165 42.9612 16.7821 43.1599 16.779C48.5064 17.2484 52.7226 21.9911 52.5418 27.2984C52.477 29.9408 51.3927 32.456 49.5152 34.319C47.6379 36.1819 45.1124 37.2484 42.4666 37.2958C37.4946 37.3648 32.5391 37.3122 27.5836 37.3122Z" fill="url(#paint0_linear_2348_5477)"/>
    <path fill-rule="evenodd" clip-rule="evenodd" d="M26.9761 16.2187C27.18 16.0079 27.4238 15.8397 27.6934 15.724C27.9631 15.6083 28.253 15.5474 28.5464 15.5449C28.8399 15.5423 29.1309 15.5982 29.4026 15.7092C29.6741 15.8201 29.9209 15.984 30.1283 16.1913C30.3359 16.3986 30.5 16.645 30.6111 16.9162C30.7222 17.1876 30.7781 17.4782 30.7756 17.7712C30.773 18.0643 30.712 18.354 30.5962 18.6232C30.4804 18.8926 30.312 19.1361 30.101 19.3398L26.786 22.6507C26.3717 23.0644 25.8097 23.2969 25.2237 23.2969C24.6377 23.2969 24.0757 23.0644 23.6612 22.6507C23.4528 22.4496 23.1737 22.3383 22.884 22.3409C22.5942 22.3433 22.3171 22.4594 22.1122 22.6641C21.9073 22.8687 21.7911 23.1454 21.7887 23.4349C21.7861 23.7242 21.8974 24.003 22.0988 24.2111C22.9277 25.0388 24.0517 25.5037 25.2237 25.5037C26.3957 25.5037 27.5197 25.0388 28.3484 24.2111L31.6633 20.9002C32.4686 20.0677 32.914 18.9526 32.9039 17.7951C32.8939 16.6376 32.429 15.5303 31.6096 14.7119C30.7901 13.8934 29.6816 13.4291 28.5227 13.4191C27.3638 13.409 26.2473 13.854 25.4137 14.6581L23.7562 16.3136C23.6507 16.4153 23.5666 16.5371 23.5086 16.6718C23.4507 16.8064 23.4202 16.9512 23.4189 17.0978C23.4177 17.2443 23.4457 17.3897 23.5012 17.5253C23.5568 17.6609 23.6388 17.7841 23.7426 17.8878C23.8463 17.9914 23.9697 18.0733 24.1054 18.1289C24.2412 18.1843 24.3868 18.2122 24.5334 18.211C24.6802 18.2097 24.8252 18.1792 24.96 18.1214C25.0948 18.0636 25.2168 17.9796 25.3187 17.8741L26.9761 16.2187ZM21.4512 21.7368C21.8657 21.323 22.4277 21.0906 23.0137 21.0906C23.5997 21.0906 24.1617 21.323 24.5761 21.7368C24.678 21.8422 24.8 21.9263 24.9348 21.9841C25.0696 22.042 25.2146 22.0724 25.3613 22.0737C25.508 22.075 25.6536 22.047 25.7893 21.9916C25.9251 21.9361 26.0484 21.8541 26.1522 21.7504C26.256 21.6469 26.338 21.5237 26.3936 21.388C26.4491 21.2523 26.4771 21.1071 26.4759 20.9606C26.4746 20.814 26.4441 20.6691 26.3862 20.5346C26.3282 20.3999 26.2441 20.2781 26.1386 20.1763C25.3097 19.3487 24.1857 18.8838 23.0137 18.8838C21.8417 18.8838 20.7177 19.3487 19.8889 20.1763L16.5739 23.4872C16.1518 23.8944 15.8151 24.3816 15.5834 24.9201C15.3518 25.4587 15.2299 26.038 15.2248 26.6241C15.2197 27.2103 15.3314 27.7916 15.5538 28.3341C15.776 28.8767 16.1041 29.3696 16.5191 29.784C16.9341 30.1986 17.4277 30.5263 17.9708 30.7483C18.514 30.9702 19.096 31.0819 19.6829 31.0769C20.2698 31.0718 20.8498 30.95 21.389 30.7187C21.9282 30.4872 22.4159 30.1509 22.8237 29.7293L24.4811 28.0739C24.5867 27.9721 24.6708 27.8503 24.7287 27.7157C24.7867 27.581 24.8171 27.4361 24.8183 27.2897C24.8197 27.1431 24.7917 26.9978 24.7361 26.8621C24.6806 26.7264 24.5986 26.6032 24.4948 26.4997C24.391 26.396 24.2677 26.3141 24.1319 26.2586C23.9961 26.2031 23.8506 26.1752 23.7039 26.1764C23.5571 26.1777 23.4121 26.2081 23.2773 26.266C23.1426 26.3239 23.0206 26.4079 22.9187 26.5133L21.2612 28.1688C21.0573 28.3796 20.8134 28.5478 20.5439 28.6634C20.2742 28.7791 19.9842 28.84 19.6908 28.8426C19.3974 28.8451 19.1064 28.7892 18.8348 28.6782C18.5632 28.5672 18.3164 28.4033 18.109 28.1961C17.9014 27.9889 17.7373 27.7424 17.6262 27.4712C17.5151 27.1999 17.4592 26.9092 17.4618 26.6162C17.4643 26.3231 17.5253 26.0334 17.6411 25.7642C17.7569 25.4949 17.9253 25.2513 18.1363 25.0477L21.4512 21.7368Z" fill="white"/>
    <path d="M73.7452 24.7732H64.6449V9.02686H60.043V28.9442H73.7452V24.7732Z" fill="#3C3C3C"/>
    <path d="M75.6875 11.042C75.6875 12.4244 76.6957 13.3383 78.2469 13.3383C79.7723 13.3383 80.7547 12.4244 80.7547 11.042C80.7547 9.65946 79.7723 8.74561 78.2469 8.74561C76.6957 8.74561 75.6875 9.65946 75.6875 11.042ZM80.5479 28.9442V14.8848H75.9461V28.9442H80.5479Z" fill="#3C3C3C"/>
    <path d="M92.9222 21.8904V28.9435H97.4982V21.8904C97.4982 17.5789 95.0422 14.7202 91.0866 14.7202C89.6389 14.7202 88.0876 15.3294 87.5705 16.1964V14.8842H82.9688V28.9435H87.5705V21.9139C87.5705 20.1564 88.7081 18.8677 90.2593 18.8677C91.8622 18.8677 92.9222 20.0861 92.9222 21.8904Z" fill="#3C3C3C"/>
    <path d="M99.4478 22.4062C99.3961 26.7411 103.429 29.0843 107.488 29.0843C111.444 29.0374 115.425 27.1863 115.4 22.992C115.4 18.821 112.09 17.6963 108.807 16.9933C106.351 16.4777 104.618 16.1732 104.593 14.9078C104.593 13.5487 105.885 12.8926 107.333 12.8926C108.807 12.8926 110.177 13.3378 110.306 14.8844H114.882C114.908 10.5729 111.185 8.90918 107.333 8.90918C103.3 8.90918 99.9908 10.7369 100.017 15.0015C100.017 19.5708 104.593 20.2035 108.005 20.9065C109.944 21.3283 110.797 21.8672 110.823 23.0388C110.823 24.7727 109.014 25.1243 107.436 25.1243C105.808 25.1243 104.076 24.023 104.024 22.4062H99.4478Z" fill="#3C3C3C"/>
    <path d="M127.289 21.8911V28.9442H131.866V21.8911C131.866 17.5796 129.435 14.7209 125.454 14.7209C124.006 14.7209 122.455 15.3301 121.938 16.1971V9.02686H117.336V28.9442H121.938V21.9146C121.938 20.1571 123.076 18.8684 124.627 18.8684C126.229 18.8684 127.289 20.0868 127.289 21.8911Z" fill="#3C3C3C"/>
    <path d="M145.591 28.9435H150.193V14.8842H145.591V16.1964C144.996 15.3529 143.264 14.7202 141.584 14.7202C137.008 14.7202 134.189 17.5789 134.189 21.8904C134.189 26.2254 137.008 29.0841 141.584 29.0841C143.264 29.0841 145.023 28.428 145.591 27.6313V28.9435ZM138.792 21.8904C138.792 20.0628 140.111 18.8677 142.204 18.8677C144.169 18.8677 145.591 20.1799 145.591 21.9139C145.617 23.6713 144.221 24.9132 142.204 24.9132C140.111 24.9132 138.792 23.7415 138.792 21.8904Z" fill="#3C3C3C"/>
    <path d="M162.323 14.7202C160.151 14.7202 158.445 15.6105 157.436 16.6651V14.8842H152.834V28.9435H157.436V22.3825C157.436 20.0628 159.117 18.8911 162.323 18.8677V14.7202Z" fill="#3C3C3C"/>
    <path d="M173.459 24.6325C173.097 24.9372 172.296 25.1714 171.287 25.1714C169.969 25.1714 168.909 24.4685 168.443 23.3437H178.784C178.862 22.8985 178.888 22.383 178.888 21.8909C178.888 17.7903 175.604 14.6973 171.236 14.6973C166.866 14.6973 163.557 17.7903 163.557 21.8675C163.557 26.0853 166.762 29.0612 171.312 29.0612C174.492 29.0612 177.259 27.2569 178.319 24.6325H173.459ZM168.443 20.3678C168.909 19.2899 169.917 18.6104 171.236 18.6104C172.553 18.6104 173.537 19.2665 174.001 20.3678H168.443Z" fill="#3C3C3C"/>
  </g>
  <defs>
    <linearGradient id="paint0_linear_2348_5477" x1="26.2737" y1="0.666016" x2="26.2737" y2="37.3327" gradientUnits="userSpaceOnUse">
      <stop stop-color="#00C6FB"/>
      <stop offset="1" stop-color="#007AFF"/>
    </linearGradient>
    <clipPath id="clip0_2348_5477">
      <rect width="178.889" height="36.6667" fill="white" transform="translate(0 0.666504)"/>
    </clipPath>
  </defs>
</svg>